# Blender v2.79 (sub 0) OBJ File: ''
# www.blender.org
mtllib armature_000208.mtl
o Cube_Cube.001
v -0.500000 -2.000000 1.000000
v -0.500000 2.000000 0.250000
v -0.500000 -2.000000 -1.000000
v -0.500000 2.000000 -0.250000
v 0.500000 -2.000000 1.000000
v 0.500000 2.000000 0.250000
v 0.500000 -2.000000 -1.000000
v 0.500000 2.000000 -0.250000
v -0.500000 1.475661 1.000000
v -0.500000 1.475661 -1.000000
v 0.500000 1.475661 -1.000000
v 0.500000 1.475661 1.000000
v -1.000000 2.000000 1.000000
v -1.000000 4.000000 1.000000
v -1.000000 2.000000 -1.000000
v -1.000000 4.000000 -1.000000
v 1.000000 2.000000 1.000000
v 1.000000 4.000000 1.000000
v 1.000000 2.000000 -1.000000
v 1.000000 4.000000 -1.000000
v -0.400000 -4.000000 0.800000
v -0.400000 -2.000000 0.800000
v -0.400000 -4.000000 0.200000
v -0.400000 -2.000000 0.200000
v 0.400000 -4.000000 0.800000
v 0.400000 -2.000000 0.800000
v 0.400000 -4.000000 0.200000
v 0.400000 -2.000000 0.200000
v -0.400000 -4.000000 -0.200000
v -0.400000 -2.000000 -0.200000
v -0.400000 -4.000000 -0.800000
v -0.400000 -2.000000 -0.800000
v 0.400000 -4.000000 -0.200000
v 0.400000 -2.000000 -0.200000
v 0.400000 -4.000000 -0.800000
v 0.400000 -2.000000 -0.800000
v -0.400000 0.600000 3.000000
v -0.400000 1.400000 3.000000
v -0.400000 0.600000 1.000000
v -0.400000 1.400000 1.000000
v 0.400000 0.600000 3.000000
v 0.400000 1.400000 3.000000
v 0.400000 0.600000 1.000000
v 0.400000 1.400000 1.000000
v -0.400000 0.600000 -1.000000
v -0.400000 1.400000 -1.000000
v -0.400000 0.599999 -3.000000
v -0.400000 1.399999 -3.000000
v 0.400000 0.600000 -1.000000
v 0.400000 1.400000 -1.000000
v 0.400000 0.599999 -3.000000
v 0.400000 1.399999 -3.000000
v -0.500000 -0.088386 -1.000000
v 0.500000 -0.088386 -1.000000
v 0.500000 -0.088386 1.000000
v -0.500000 -0.088386 1.000000
vn -1.0000 0.0000 0.0000
vn 0.0000 0.8196 -0.5730
vn 1.0000 0.0000 0.0000
vn 0.0000 0.8196 0.5730
vn 0.0000 -1.0000 0.0000
vn 0.0000 1.0000 0.0000
vn 0.0000 0.0000 1.0000
vn 0.0000 0.0000 -1.0000
usemtl None
s off
f 9//1 2//1 4//1 10//1
f 10//2 4//2 8//2 11//2
f 11//3 8//3 6//3 12//3
f 12//4 6//4 2//4 9//4
f 3//5 7//5 5//5 1//5
f 8//6 4//6 2//6 6//6
f 55//7 12//7 9//7 56//7
f 54//3 11//3 12//3 55//3
f 53//8 10//8 11//8 54//8
f 56//1 9//1 10//1 53//1
f 13//1 14//1 16//1 15//1
f 15//8 16//8 20//8 19//8
f 19//3 20//3 18//3 17//3
f 17//7 18//7 14//7 13//7
f 15//5 19//5 17//5 13//5
f 20//6 16//6 14//6 18//6
f 21//1 22//1 24//1 23//1
f 23//8 24//8 28//8 27//8
f 27//3 28//3 26//3 25//3
f 25//7 26//7 22//7 21//7
f 23//5 27//5 25//5 21//5
f 28//6 24//6 22//6 26//6
f 29//1 30//1 32//1 31//1
f 31//8 32//8 36//8 35//8
f 35//3 36//3 34//3 33//3
f 33//7 34//7 30//7 29//7
f 31//5 35//5 33//5 29//5
f 36//6 32//6 30//6 34//6
f 37//1 38//1 40//1 39//1
f 39//8 40//8 44//8 43//8
f 43//3 44//3 42//3 41//3
f 41//7 42//7 38//7 37//7
f 39//5 43//5 41//5 37//5
f 44//6 40//6 38//6 42//6
f 45//1 46//1 48//1 47//1
f 47//8 48//8 52//8 51//8
f 51//3 52//3 50//3 49//3
f 49//7 50//7 46//7 45//7
f 47//5 51//5 49//5 45//5
f 52//6 48//6 46//6 50//6
f 1//1 56//1 53//1 3//1
f 3//8 53//8 54//8 7//8
f 7//3 54//3 55//3 5//3
f 5//7 55//7 56//7 1//7
