# Blender v2.79 (sub 0) OBJ File: ''
# www.blender.org
mtllib cube3.mtl
o Cube
v 1.007305 -0.967180 -0.993237
v 0.993822 -0.971510 1.006712
v -1.005193 -1.032788 0.993102
v -0.991709 -1.028457 -1.006848
v 0.946000 1.031877 -0.989321
v 0.932516 1.027546 1.010628
v -1.066499 0.966269 0.997018
v -1.053015 0.970599 -1.002932
v 0.995304 -0.575829 -0.992471
v 0.983043 -0.176018 -0.991688
v 0.970782 0.223793 -0.990904
v 0.958521 0.623605 -0.990121
v 0.981820 -0.580160 1.007479
v 0.969559 -0.180349 1.008262
v 0.957298 0.219463 1.009045
v 0.945037 0.619274 1.009829
v -1.017195 -0.641437 0.993869
v -1.029456 -0.241626 0.994652
v -1.041717 0.158185 0.995435
v -1.053978 0.557997 0.996218
v -1.003711 -0.637106 -1.006081
v -1.015972 -0.237295 -1.005298
v -1.028233 0.162516 -1.004515
v -1.040494 0.562327 -1.003731
vn 0.0307 -0.9995 -0.0020
vn -0.0307 0.9995 0.0020
vn 0.9995 0.0306 0.0068
vn -0.0067 -0.0022 1.0000
vn -0.9995 -0.0306 -0.0068
vn 0.0067 0.0022 -1.0000
usemtl Material
s off
f 1//1 2//1 3//1 4//1
f 5//2 8//2 7//2 6//2
f 12//3 5//3 6//3 16//3
f 16//4 6//4 7//4 20//4
f 20//5 7//5 8//5 24//5
f 9//6 1//6 4//6 21//6
f 5//6 12//6 24//6 8//6
f 12//6 11//6 23//6 24//6
f 11//6 10//6 22//6 23//6
f 10//6 9//6 21//6 22//6
f 3//5 17//5 21//5 4//5
f 17//5 18//5 22//5 21//5
f 18//5 19//5 23//5 22//5
f 19//5 20//5 24//5 23//5
f 2//4 13//4 17//4 3//4
f 13//4 14//4 18//4 17//4
f 14//4 15//4 19//4 18//4
f 15//4 16//4 20//4 19//4
f 1//3 9//3 13//3 2//3
f 9//3 10//3 14//3 13//3
f 10//3 11//3 15//3 14//3
f 11//3 12//3 16//3 15//3
